Coordinates
version=1
nRows=9
nColumns=24
inDegrees=yes

Units are S.I. units (second, meters, Newtons, ...)
If the header above contains a line with 'inDegrees', this indicates whether rotational values are in degrees (yes) or radians (no).

endheader
time	pelvis_tilt	pelvis_list	pelvis_rotation	pelvis_tx	pelvis_ty	pelvis_tz	lumbar_extension	lumbar_bending	lumbar_rotation	arm_flex_r	arm_add_r	arm_rot_r	elbow_flex_r	pro_sup_r	wrist_flex_r	wrist_dev_r	arm_flex_l	arm_add_l	arm_rot_l	elbow_flex_l	pro_sup_l	wrist_flex_l	wrist_dev_l
     23.02800000	     -9.57636171	     -1.25705351	      2.47397561	      0.94787640	      0.85515755	      0.09202345	     -4.52255117	     -1.99763236	      1.48914022	      6.84155059	     -7.25554711	      9.00920775	     23.13813781	     85.43518294	     -9.92009087	    -24.99999983	     15.42911582	     -3.76615193	      2.27015926	    125.55595780	     67.01504505	    -50.07597498	    -24.99999983
     23.03200000	     -9.51187086	     -1.26380494	      2.48365509	      0.94889800	      0.85495389	      0.09211239	     -4.45355090	     -2.00840520	      1.49487542	      6.65672247	     -7.23495188	      8.93150274	     23.20701924	     85.40052256	     -9.90710922	    -24.99999983	     15.11981489	     -3.82169182	      2.25231316	    125.42389025	     65.61735519	    -50.27444002	    -24.99999983
     23.03600000	     -9.52986108	     -1.26990376	      2.47310676	      0.94855951	      0.85495864	      0.09228115	     -4.47395842	     -2.01349627	      1.48372867	      6.69721714	     -7.21590809	      8.92708095	     23.21972116	     85.39937476	     -9.91137204	    -24.99999983	     15.00509439	     -3.84632465	      2.14741119	    125.05998604	     65.55120814	    -50.26893233	    -24.99999983
     23.04000000	     -9.53819355	     -1.27635955	      2.46863063	      0.94830768	      0.85496649	      0.09235030	     -4.48407980	     -2.01944349	      1.47879944	      6.73119878	     -7.20621030	      8.91538641	     23.19672305	     85.39324246	     -9.92826139	    -24.99999983	     14.89097132	     -3.81949733	      2.06146807	    124.65787712	     65.45437084	    -50.27031257	    -24.99999983
     23.04400000	     -9.56887640	     -1.28788739	      2.43755084	      0.94788347	      0.85494440	      0.09249728	     -4.51845328	     -2.02765961	      1.44747679	      6.79734198	     -7.18164498	      8.91787728	     23.24091862	     85.39605941	     -9.92745207	    -24.99999983	     14.75222815	     -3.86295055	      2.04241053	    124.39967067	     65.40250715	    -50.27896261	    -24.99999983
     23.04800000	     -9.55797076	     -1.29221221	      2.46542029	      0.94780269	      0.85488549	      0.09263845	     -4.50792499	     -2.03522079	      1.47363313	      6.78813982	     -7.17058462	      8.93785183	     23.19504441	     85.40151076	     -9.91648444	    -24.99999983	     14.66767313	     -3.83055615	      1.90437330	    123.89228018	     65.26467871	    -50.30747545	    -24.99999983
     23.05200000	     -9.59589285	     -1.29885092	      2.42882629	      0.94735565	      0.85495536	      0.09269354	     -4.54911334	     -2.03742396	      1.43804623	      6.85217158	     -7.16563988	      8.93686348	     23.22880994	     85.40289226	     -9.91503670	    -24.99999983	     14.51640132	     -3.87783039	      1.89075408	    123.62309581	     65.19919043	    -50.32269242	    -24.99999983
     23.05600000	     -9.60441028	     -1.30043507	      2.42145359	      0.94712121	      0.85497902	      0.09280696	     -4.55909627	     -2.03846364	      1.43030549	      6.88060206	     -7.14894481	      8.94631818	     23.23054522	     85.40584329	     -9.90958883	    -24.99999983	     14.39618091	     -3.90164024	      1.79381685	    123.21800817	     65.09430347	    -50.35406321	    -24.99999983
     23.06000000	     -9.59343020	     -1.30582371	      2.43892028	      0.94714507	      0.85493790	      0.09273807	     -4.54805038	     -2.04539497	      1.44724469	      6.87002137	     -7.15480858	      8.96578982	     23.15517426	     85.40698446	     -9.89759375	    -24.99999983	     14.28285299	     -3.80089776	      1.72801015	    122.76898855	     64.89022069	    -50.40006320	    -24.99999983
